HIERARCHY
ROOT Hips
{
	OFFSET 0.000000 0.000000 0.000000
	CHANNELS 6 Xposition Yposition Zposition Zrotation Yrotation Xrotation 
	JOINT LHipJoint
	{
		OFFSET 0.000000 0.000000 0.000000
		CHANNELS 3 Zrotation Yrotation Xrotation
		JOINT LeftUpLeg
		{
			OFFSET 1.363060 -1.794630 0.839290
			CHANNELS 3 Zrotation Yrotation Xrotation
			JOINT LeftLeg
			{
				OFFSET 2.448110 -6.726130 0.000000
				CHANNELS 3 Zrotation Yrotation Xrotation
				JOINT LeftFoot
				{
					OFFSET 2.562200 -7.039590 0.000000
					CHANNELS 3 Zrotation Yrotation Xrotation
					JOINT LeftToeBase
					{
						OFFSET 0.157640 -0.433110 2.322550
						CHANNELS 3 Zrotation Yrotation Xrotation
						End Site
						{
							OFFSET 0.000000 0.000000 0.000000
						}
					}
				}
			}
		}
	}
	JOINT RHipJoint
	{
		OFFSET 0.000000 0.000000 0.000000
		CHANNELS 3 Zrotation Yrotation Xrotation
		JOINT RightUpLeg
		{
			OFFSET -1.305520 -1.794630 0.839290
			CHANNELS 3 Zrotation Yrotation Xrotation
			JOINT RightLeg
			{
				OFFSET -2.542530 -6.985550 0.000000
				CHANNELS 3 Zrotation Yrotation Xrotation
				JOINT RightFoot
				{
					OFFSET -2.568260 -7.056230 0.000000
					CHANNELS 3 Zrotation Yrotation Xrotation
					JOINT RightToeBase
					{
						OFFSET -0.164730 -0.452590 2.363150
						CHANNELS 3 Zrotation Yrotation Xrotation
						End Site
						{
							OFFSET 0.000000 0.000000 0.000000
						}
					}
				}
			}
		}
	}
	JOINT LowerBack
	{
		OFFSET 0.000000 0.000000 0.000000
		CHANNELS 3 Zrotation Yrotation Xrotation
		JOINT Spine
		{
			OFFSET 0.028270 2.035590 -0.193380
			CHANNELS 3 Zrotation Yrotation Xrotation
			JOINT Spine1
			{
				OFFSET 0.056720 2.048850 -0.042750
				CHANNELS 3 Zrotation Yrotation Xrotation
				JOINT Neck
				{
					OFFSET 0.000000 0.000000 0.000000
					CHANNELS 3 Zrotation Yrotation Xrotation
					JOINT Neck1
					{
						OFFSET -0.054170 1.746240 0.172020
						CHANNELS 3 Zrotation Yrotation Xrotation
						JOINT Head
						{
							OFFSET 0.104070 1.761360 -0.123970
							CHANNELS 3 Zrotation Yrotation Xrotation
							End Site
							{
								OFFSET 0.000000 0.000000 0.000000
							}
						}
					}
				}
				JOINT LeftShoulder
				{
					OFFSET 0.000000 0.000000 0.000000
					CHANNELS 3 Zrotation Yrotation Xrotation
					JOINT LeftArm
					{
						OFFSET 3.362410 1.200890 -0.311210
						CHANNELS 3 Zrotation Yrotation Xrotation
						JOINT LeftForeArm
						{
							OFFSET 4.983000 -0.000000 -0.000000
							CHANNELS 3 Zrotation Yrotation Xrotation
							JOINT LeftHand
							{
								OFFSET 3.483560 -0.000000 -0.000000
								CHANNELS 3 Zrotation Yrotation Xrotation
								JOINT LeftFingerBase
								{
									OFFSET 0.000000 0.000000 0.000000
									CHANNELS 3 Zrotation Yrotation Xrotation
									JOINT LeftHandIndex1
									{
										OFFSET 0.715260 -0.000000 -0.000000
										CHANNELS 3 Zrotation Yrotation Xrotation
										End Site
										{
											OFFSET 0.000000 0.000000 0.000000
										}
									}
								}
								JOINT LThumb
								{
									OFFSET 0.000000 0.000000 0.000000
									CHANNELS 3 Zrotation Yrotation Xrotation
									End Site
									{
										OFFSET 0.000000 0.000000 0.000000
									}
								}
							}
						}
					}
				}
				JOINT RightShoulder
				{
					OFFSET 0.000000 0.000000 0.000000
					CHANNELS 3 Zrotation Yrotation Xrotation
					JOINT RightArm
					{
						OFFSET -3.136600 1.374050 -0.404650
						CHANNELS 3 Zrotation Yrotation Xrotation
						JOINT RightForeArm
						{
							OFFSET -5.241900 -0.000000 -0.000000
							CHANNELS 3 Zrotation Yrotation Xrotation
							JOINT RightHand
							{
								OFFSET -3.444170 -0.000000 -0.000000
								CHANNELS 3 Zrotation Yrotation Xrotation
								JOINT RightFingerBase
								{
									OFFSET 0.000000 0.000000 0.000000
									CHANNELS 3 Zrotation Yrotation Xrotation
									JOINT RightHandIndex1
									{
										OFFSET -0.622530 -0.000000 -0.000000
										CHANNELS 3 Zrotation Yrotation Xrotation
										End Site
										{
											OFFSET 0.000000 0.000000 0.000000
										}
									}
								}
								JOINT RThumb
								{
									OFFSET 0.000000 0.000000 0.000000
									CHANNELS 3 Zrotation Yrotation Xrotation
									End Site
									{
										OFFSET 0.000000 0.000000 0.000000
									}
								}
							}
						}
					}
				}
			}
		}
	}
}
MOTION
Frames: 9
Frame Time: 0.008333
0.634057 16.758879 -0.336358 -13.206404 82.881296 17.908557 -8.121995 -1.674326 0.349984 -13.779202 -0.612952 -60.311061 -3.363404 0.109676 19.064592 2.334154 9.062686 -8.526701 0.586499 -0.000000 -36.071701 10.765866 -1.283850 -5.602892 9.379911 -11.107854 -24.544462 0.752546 -3.631617 47.171475 -1.127292 -5.349583 4.503683 -1.220100 -0.000000 -55.469099 -5.996534 2.138967 8.168716 -1.694743 2.610885 -1.908478 -3.985411 2.663112 -2.067593 3.428518 -3.808125 -5.332965 -0.610698 -0.059678 0.268529 0.000000 0.000000 0.000000 6.032556 18.140696 1.583950 -66.850399 38.848682 22.734452 -179.410039 -70.743830 -179.995691 -2.350162 -3.249107 0.076454 0.128202 0.285065 -0.000000 0.000000 0.000000 0.000000 0.000000 0.000000 0.000000 -7.932949 4.267465 -2.534309 77.613793 15.549515 22.198836 179.461101 77.181288 179.999980 0.293942 10.850618 0.033890 -0.030437 -0.672001 -0.000000 0.000000 0.000000 0.000000 0.000000 0.000000 0.000000 
0.855529 16.692683 -0.348188 -13.581689 82.727900 17.542798 -8.164439 -1.686343 0.263892 -13.663619 -0.564309 -60.818131 -3.270085 0.365532 20.843320 2.285261 8.958962 -8.136148 0.650200 0.000000 -35.698900 10.820704 -1.238148 -5.572573 9.087594 -10.822551 -25.003107 0.583741 -3.763200 49.367634 -1.335945 -6.651494 3.473766 -1.386900 -0.000000 -51.912900 -6.184321 2.136538 8.194949 -1.715560 2.617714 -1.902868 -3.924938 2.671872 -2.066319 3.377043 -3.596302 -5.445638 -0.649067 -0.060187 0.232041 0.000000 0.000000 0.000000 5.788884 18.254634 1.688459 -67.928001 37.905552 21.565638 -179.417117 -70.511457 -179.996273 -2.082155 -3.270476 0.068727 0.123924 0.296272 -0.000000 0.000000 0.000000 0.000000 0.000000 0.000000 0.000000 -7.911274 4.546694 -2.507357 77.817923 15.151130 22.083832 179.475444 77.381211 -179.998278 0.606163 10.772657 0.065962 -0.040034 -0.667890 -0.000000 0.000000 0.000000 0.000000 0.000000 0.000000 0.000000 
1.073182 16.617592 -0.359495 -13.708208 82.578350 17.408211 -8.205538 -1.704172 0.129350 -13.607099 -0.485813 -61.466327 -3.154856 0.686822 23.161776 2.234076 8.826448 -7.827117 0.689000 -0.000000 -34.890400 10.883497 -1.183457 -5.539189 8.756477 -10.511585 -25.545859 0.413133 -3.908429 51.713976 -1.538430 -7.881564 2.267489 -1.476900 -0.000000 -48.637100 -6.384952 2.123736 8.267188 -1.740443 2.614532 -1.893155 -3.875785 2.671136 -2.088884 3.337641 -3.340974 -5.546501 -0.703425 -0.061974 0.197170 0.000000 0.000000 0.000000 5.495111 18.316175 1.796421 -68.977185 36.871249 20.405556 -179.422829 -70.247183 -179.996878 -1.825761 -3.284845 0.061101 0.119933 0.307983 -0.000000 0.000000 0.000000 0.000000 0.000000 0.000000 0.000000 -7.822307 4.874553 -2.471851 78.029344 14.703581 21.866580 179.489875 77.550356 -179.996752 0.903140 10.709862 0.096135 -0.049799 -0.664823 -0.000000 0.000000 0.000000 0.000000 0.000000 0.000000 0.000000 
1.286813 16.534543 -0.370375 -13.704296 82.420385 17.382365 -8.244288 -1.732213 -0.054752 -13.610103 -0.349288 -62.246366 -3.018500 1.061122 25.966729 2.181452 8.653222 -7.670673 0.688300 -0.000000 -33.589100 10.952867 -1.122552 -5.501202 8.400122 -10.165898 -26.157431 0.239580 -4.064596 54.172817 -1.722288 -8.968907 0.952088 -1.479800 -0.000000 -45.668100 -6.587014 2.107487 8.386060 -1.767447 2.607645 -1.880082 -3.838277 2.667220 -2.138632 3.301420 -3.037999 -5.626496 -0.774094 -0.065221 0.166478 0.000000 0.000000 0.000000 5.144589 18.312845 1.903772 -69.986379 35.739366 19.271721 -179.426774 -69.960296 -179.997473 -1.585794 -3.285886 0.053775 0.116215 0.320023 -0.000000 0.000000 0.000000 0.000000 0.000000 0.000000 0.000000 -7.672251 5.255271 -2.426978 78.255053 14.200919 21.535883 179.505441 77.711085 -179.995400 1.190711 10.660239 0.125108 -0.059889 -0.662493 -0.000000 0.000000 0.000000 0.000000 0.000000 0.000000 0.000000 
1.496238 16.444798 -0.380864 -13.636333 82.245666 17.393745 -8.279424 -1.774246 -0.286328 -13.668504 -0.139719 -63.122442 -2.862938 1.470066 29.162806 2.131874 8.450834 -7.730108 0.639400 0.000000 -31.816100 11.027797 -1.057451 -5.459174 8.026583 -9.782139 -26.820746 0.061983 -4.229049 56.703749 -1.875756 -9.852509 -0.401238 -1.399100 0.000000 -43.138500 -6.783043 2.094233 8.551674 -1.795481 2.602862 -1.864132 -3.812458 2.665923 -2.217534 3.260663 -2.687513 -5.675125 -0.861026 -0.070100 0.142947 0.000000 0.000000 0.000000 4.736705 18.227510 2.005818 -70.948465 34.499518 18.180487 -179.428923 -69.671625 -179.998034 -1.361438 -3.262326 0.046550 0.112586 0.332065 -0.000000 0.000000 0.000000 0.000000 0.000000 0.000000 0.000000 -7.464582 5.686596 -2.371032 78.503266 13.638744 21.083951 179.523529 77.896166 -179.994197 1.471844 10.620726 0.153482 -0.070329 -0.660465 -0.000000 0.000000 0.000000 0.000000 0.000000 0.000000 0.000000 
1.701375 16.349872 -0.390595 -13.471577 82.055943 17.470105 -8.308451 -1.831709 -0.560390 -13.784229 0.137661 -64.036714 -2.692651 1.891708 32.622562 2.092828 8.252682 -8.051316 0.540400 -0.000000 -29.691900 11.109252 -0.989149 -5.415743 7.629453 -9.367832 -27.523673 -0.119416 -4.401235 59.271357 -1.988611 -10.481877 -1.740666 -1.247800 0.000000 -41.090700 -6.978943 2.087004 8.763234 -1.825970 2.602917 -1.843816 -3.797654 2.669996 -2.319474 3.213334 -2.302967 -5.686108 -0.963525 -0.076639 0.128242 0.000000 0.000000 0.000000 4.292532 18.057011 2.098248 -71.861013 33.113645 17.161608 -179.430131 -69.422823 -179.998559 -1.143434 -3.197806 0.039028 0.108605 0.343668 -0.000000 0.000000 0.000000 0.000000 0.000000 0.000000 0.000000 -7.195110 6.148010 -2.303263 78.780182 13.029261 20.516113 179.545614 78.143712 -179.993180 1.739333 10.589565 0.180357 -0.080835 -0.658292 -0.000000 0.000000 0.000000 0.000000 0.000000 0.000000 0.000000 
1.902259 16.251474 -0.399462 -13.232425 81.853510 17.589652 -8.330800 -1.903336 -0.867666 -13.946982 0.471949 -64.939432 -2.513296 2.307449 36.220034 2.071832 8.094551 -8.665070 0.392900 -0.000000 -27.396800 11.195937 -0.918423 -5.372199 7.215332 -8.923797 -28.260184 -0.304771 -4.579023 61.841240 -2.054911 -10.831696 -3.020964 -1.048099 -0.000000 -39.589100 -7.169386 2.089143 9.014269 -1.858093 2.610584 -1.820659 -3.793857 2.682062 -2.445050 3.155036 -1.886468 -5.647632 -1.080242 -0.084924 0.125915 0.000000 0.000000 0.000000 3.814359 17.780203 2.175284 -72.714087 31.574065 16.225641 -179.430096 -69.241972 -179.999086 -0.917600 -3.082458 0.031011 0.103654 0.354498 -0.000000 0.000000 0.000000 0.000000 0.000000 0.000000 0.000000 -6.867352 6.631053 -2.221751 79.094948 12.367117 19.829324 179.573245 78.489354 -179.992419 1.984344 10.565764 0.205029 -0.091141 -0.655565 -0.000000 0.000000 0.000000 0.000000 0.000000 0.000000 0.000000 
2.098983 16.151356 -0.407071 -12.870749 81.650511 17.801080 -8.345358 -1.985234 -1.198979 -14.157109 0.839924 -65.775765 -2.332084 2.701559 39.832320 2.075355 8.011385 -9.579662 0.199800 0.000000 -25.145500 11.288237 -0.845515 -5.330844 6.780139 -8.461677 -29.029136 -0.492977 -4.762358 64.384978 -2.072324 -10.893613 -4.220004 -0.822900 -0.000000 -38.601199 -7.360117 2.100158 9.298517 -1.892953 2.625205 -1.792822 -3.800184 2.701346 -2.582664 3.087977 -1.458404 -5.557584 -1.208710 -0.094765 0.136618 0.000000 0.000000 0.000000 3.327691 17.405918 2.231664 -73.499553 29.836106 15.406829 -179.429299 -69.180436 -179.999685 -0.665045 -2.903186 0.022203 0.096926 0.364152 -0.000000 0.000000 0.000000 0.000000 0.000000 0.000000 0.000000 -6.477889 7.103487 -2.127069 79.451916 11.669018 19.040026 179.607893 78.973281 -179.992083 2.182883 10.552076 0.225102 -0.100560 -0.651923 -0.000000 0.000000 0.000000 0.000000 0.000000 0.000000 0.000000 
2.291788 16.051356 -0.413263 -12.379971 81.458982 18.114788 -8.352681 -2.072233 -1.544120 -14.407889 1.218204 -66.504044 -2.155419 3.063760 43.357180 2.107572 8.026771 -10.784469 -0.038000 0.000001 -23.127801 11.384942 -0.770271 -5.292783 6.328843 -7.990304 -29.833295 -0.683201 -4.949990 66.875838 -2.043516 -10.685316 -5.324123 -0.594800 -0.000000 -38.090300 -7.547654 2.119184 9.607085 -1.929877 2.645671 -1.761190 -3.816988 2.726522 -2.728896 3.013524 -1.025341 -5.409612 -1.346151 -0.106033 0.162492 0.000000 0.000000 0.000000 2.836907 16.925420 2.261932 -74.200670 27.892286 14.715620 -179.426838 -69.263319 179.999540 -0.368799 -2.657564 0.012707 0.087691 0.372455 -0.000000 0.000000 0.000000 0.000000 0.000000 0.000000 0.000000 -6.030063 7.549501 -2.018740 79.856363 10.932812 18.153419 179.650461 79.624120 -179.992368 2.309174 10.551811 0.238177 -0.108492 -0.647145 -0.000000 0.000000 0.000000 0.000000 0.000000 0.000000 0.000000 
